<?xml version="1.0" encoding="UTF-8" standalone="no"?>
<!-- Created with Inkscape (http://www.inkscape.org/) -->

<svg
   xmlns:dc="http://purl.org/dc/elements/1.1/"
   xmlns:cc="http://creativecommons.org/ns#"
   xmlns:rdf="http://www.w3.org/1999/02/22-rdf-syntax-ns#"
   xmlns:svg="http://www.w3.org/2000/svg"
   xmlns="http://www.w3.org/2000/svg"
   xmlns:sodipodi="http://sodipodi.sourceforge.net/DTD/sodipodi-0.dtd"
   xmlns:inkscape="http://www.inkscape.org/namespaces/inkscape"
   id="svg2985"
   version="1.1"
   inkscape:version="0.48.1 "
   width="225"
   height="400"
   sodipodi:docname="logominimalistaNOVO.svg"
   inkscape:export-filename="C:\Users\Sarah Paiva\Desktop\Logonovominimalista.png"
   inkscape:export-xdpi="90"
   inkscape:export-ydpi="90">
  <metadata
     id="metadata2991">
    <rdf:RDF>
      <cc:Work
         rdf:about="">
        <dc:format>image/svg+xml</dc:format>
        <dc:type
           rdf:resource="http://purl.org/dc/dcmitype/StillImage" />
        <dc:title></dc:title>
      </cc:Work>
    </rdf:RDF>
  </metadata>
  <defs
     id="defs2989" />
  <sodipodi:namedview
     pagecolor="#ffffff"
     bordercolor="#666666"
     borderopacity="1"
     objecttolerance="10"
     gridtolerance="10"
     guidetolerance="10"
     inkscape:pageopacity="0"
     inkscape:pageshadow="2"
     inkscape:window-width="1366"
     inkscape:window-height="705"
     id="namedview2987"
     showgrid="false"
     inkscape:zoom="0.82"
     inkscape:cx="140.38288"
     inkscape:cy="116.60499"
     inkscape:window-x="-8"
     inkscape:window-y="-8"
     inkscape:window-maximized="1"
     inkscape:current-layer="svg2985"
     showguides="true"
     inkscape:guide-bbox="true" />
  <g
     id="g3941"
     transform="matrix(0.78480627,0,0,0.78480627,17.886659,29.28277)"
     inkscape:export-filename="C:\Users\julia\Documents\naldasmodapet\sources335\img\logo.png"
     inkscape:export-xdpi="500"
     inkscape:export-ydpi="500">
    <path
       sodipodi:nodetypes="cccccccccccccccccccccccccccccccccccccccccccccccccc"
       inkscape:connector-curvature="0"
       id="path3050"
       d="m 26.907292,207.68672 c -1.47574,-13.66394 -2.76824,-27.36714 6.43953,-43.32039 11.23195,-16.11976 44.78941,-28.08637 51.51614,6.14681 1.97314,8.83266 -7.69637,13.86836 -12.29362,21.66019 -0.28165,6.12655 -0.38488,11.85846 4.68328,14.92799 l -3.80517,1.75622 c 7.08544,6.24812 15.34088,3.13624 23.12372,3.80516 15.903658,-9.4633 31.807318,-8.97544 47.710978,0.2927 9.20388,3.26292 16.84046,1.3014 23.70913,-3.21974 l -5.56141,-2.04894 c 3.10398,-0.85861 8.70977,-3.62757 4.39057,-17.26962 -5.22536,-5.45656 -10.99468,-10.18783 -11.7082,-21.66019 13.05548,-35.07188 42.99812,-13.10727 48.88179,-6.43952 13.39094,20.622 10.4072,32.40714 10.53738,45.66204 -2.60951,-16.46846 -8.1237,-28.21677 -16.9769,-34.53922 2.35778,3.45559 4.17586,7.18106 4.97598,11.4155 -6.77855,-8.01429 -9.92808,-7.31883 -12.87903,-6.14681 8.23313,5.69544 10.13948,12.29471 13.17174,18.73313 -3.02462,-4.40016 -6.04923,-7.85433 -9.07386,-7.61034 8.6987,16.99499 21.10291,28.16701 19.61125,61.17542 -3.17506,18.47094 -7.60852,38.82953 -7.90303,52.97966 -0.96904,18.95369 10.10101,25.06573 20.48936,31.90488 -33.16265,-10.3417 -32.37412,-39.52348 -28.68513,-69.66387 1.30072,-21.33478 -2.86621,-37.88539 -14.04984,-48.29637 2.86771,5.07355 5.09154,10.1471 4.09787,15.22068 -0.88346,-3.40955 -1.80345,-6.78257 -4.97598,-7.90305 4.7676,11.40815 3.32151,19.36424 1.17081,26.92889 -0.99904,-6.79476 -3.48923,-11.35277 -7.61033,-13.46445 3.34694,9.17143 6.45892,18.34287 2.92704,27.5143 0,-6.63465 -2.34163,-12.09848 -7.02491,-16.39149 4.04614,27.07086 0.27121,53.80169 -31.31947,79.32314 16.65316,-28.88365 36.22088,-77.04062 -20.19667,-89.27513 -51.335008,11.98938 -42.764098,54.37784 -19.31856,89.56784 -7.971928,-8.78201 -38.410358,-23.30602 -32.490298,-78.44503 -4.24241,1.57645 -5.5487,8.29115 -6.73222,15.22067 -0.57884,-8.51059 -3.52288,-16.0751 3.21976,-27.5143 -3.5575,2.852 -6.66624,6.45193 -7.90305,13.17174 -3.61389,-9.81617 -2.42559,-18.67187 1.75624,-26.92888 -2.11111,0.53185 -3.64084,3.38922 -4.97598,7.02492 -2.27958,-4.35764 1.66529,-8.93543 4.68327,-14.04985 -10.15732,3.97761 -17.7147,27.60706 -14.92797,47.71097 5.16094,38.79649 -3.41133,63.15554 -28.68512,69.95656 11.32604,-7.21196 21.89191,-15.1841 20.19666,-35.41734 -3.92146,-22.85427 -10.3965,-46.21926 -7.02492,-67.61492 0.95426,-18.97748 12.37177,-29.81685 19.61125,-43.90582 -3.44266,2.15364 -7.38429,3.55884 -9.36657,7.90306 0.63781,-8.13149 7.98121,-13.38914 13.75715,-19.31855 -4.48814,0.93868 -8.9763,-0.47002 -13.46444,7.02493 l 5.5614,-12.00092 c -8.70703,7.08498 -16.27548,15.99172 -17.26962,35.41734 z"
       style="fill:#ead096;fill-opacity:1;stroke:none" />
    <path
       transform="translate(-440.66585,-2.4896376)"
       d="m 603.73711,201.4514 c 0,5.8437 -4.45859,10.58096 -9.95855,10.58096 -5.49995,0 -9.95855,-4.73726 -9.95855,-10.58096 0,-5.8437 4.4586,-10.58096 9.95855,-10.58096 5.49996,0 9.95855,4.73726 9.95855,10.58096 z"
       sodipodi:ry="10.580959"
       sodipodi:rx="9.9585505"
       sodipodi:cy="201.4514"
       sodipodi:cx="593.77856"
       id="path3822"
       style="fill:#502d16;fill-opacity:1;stroke:none"
       sodipodi:type="arc" />
    <path
       transform="translate(-506.64125,-2.8582148)"
       d="m 603.73711,201.4514 c 0,5.8437 -4.45859,10.58096 -9.95855,10.58096 -5.49995,0 -9.95855,-4.73726 -9.95855,-10.58096 0,-5.8437 4.4586,-10.58096 9.95855,-10.58096 5.49996,0 9.95855,4.73726 9.95855,10.58096 z"
       sodipodi:ry="10.580959"
       sodipodi:rx="9.9585505"
       sodipodi:cy="201.4514"
       sodipodi:cx="593.77856"
       id="path3822-5"
       style="fill:#502d16;fill-opacity:1;stroke:none"
       sodipodi:type="arc" />
    <path
       transform="translate(-2.2844599,-2.030631)"
       d="m 96.96263,197.44456 c 0,2.38316 -1.761468,4.3151 -3.934348,4.3151 -2.17288,0 -3.934347,-1.93194 -3.934347,-4.3151 0,-2.38315 1.761467,-4.31509 3.934347,-4.31509 2.17288,0 3.934348,1.93194 3.934348,4.31509 z"
       sodipodi:ry="4.3150907"
       sodipodi:rx="3.9343476"
       sodipodi:cy="197.44456"
       sodipodi:cx="93.028282"
       id="path3842"
       style="fill:#ffffff;fill-opacity:1;stroke:none"
       sodipodi:type="arc" />
    <path
       transform="translate(64.091791,-1.5229794)"
       d="m 96.96263,197.44456 c 0,2.38316 -1.761468,4.3151 -3.934348,4.3151 -2.17288,0 -3.934347,-1.93194 -3.934347,-4.3151 0,-2.38315 1.761467,-4.31509 3.934347,-4.31509 2.17288,0 3.934348,1.93194 3.934348,4.31509 z"
       sodipodi:ry="4.3150907"
       sodipodi:rx="3.9343476"
       sodipodi:cy="197.44456"
       sodipodi:cx="93.028282"
       id="path3842-4"
       style="fill:#ffffff;fill-opacity:1;stroke:none"
       sodipodi:type="arc" />
    <path
       sodipodi:nodetypes="sssss"
       inkscape:connector-curvature="0"
       id="path3865"
       d="m 131.82602,219.25154 c 0,4.25724 -5.19544,11.18964 -10.07065,11.18964 -4.87523,0 -10.07067,-7.18106 -10.07067,-11.4383 0,-4.25723 5.19544,-7.7084 10.07067,-7.7084 4.87521,0 10.07065,3.69982 10.07065,7.95706 z"
       style="fill:#502d16;fill-opacity:1;stroke:none" />
    <path
       sodipodi:nodetypes="cccccscscc"
       inkscape:connector-curvature="0"
       id="path3868"
       d="m 120.52348,192.49815 c 18.3965,-3.16197 16.89094,-8.63035 19.49097,-26.60292 6.45214,-16.90193 7.67472,-28.98543 -0.29297,-39.58128 0.76789,8.6222 0.66967,14.51335 -3.46581,19.17535 -3.87264,-0.68174 5.56096,-15.96215 -22.3834,-34.99267 11.07705,14.99255 3.8665,35.46836 3.46715,36.92125 -0.95268,3.46603 -0.90793,-5.23321 -7.57735,-15.7573 0.68541,11.06045 -1.75136,28.04506 -6.69272,27.06638 -8.293944,-1.64271 -3.573167,16.66818 -0.63223,17.57841 1.61253,14.69884 12.07316,14.75621 18.08636,16.19278 z"
       style="fill:#ead096;fill-opacity:1;stroke:none" />
    <path
       transform="matrix(0.69575282,0,0,0.69575282,32.529018,46.375907)"
       d="m 139.87539,179.59502 c 0,6.10782 -5.36979,11.05919 -11.99377,11.05919 -6.62397,0 -11.99377,-4.95137 -11.99377,-11.05919 0,-6.10783 5.3698,-11.05919 11.99377,-11.05919 6.62398,0 11.99377,4.95136 11.99377,11.05919 z"
       sodipodi:ry="11.05919"
       sodipodi:rx="11.99377"
       sodipodi:cy="179.59502"
       sodipodi:cx="127.88162"
       id="path3870"
       style="fill:#a02c2c;fill-opacity:1;stroke:none"
       sodipodi:type="arc" />
    <path
       sodipodi:nodetypes="sssss"
       inkscape:connector-curvature="0"
       id="path3874"
       d="m 146.12484,169.5268 c 0.53961,5.52141 4.01383,6.28511 -1.07544,9.07655 -5.53548,3.0362 -19.22783,-0.71655 -19.84504,-7.03196 -0.66586,-6.81306 14.21149,-13.88449 20.23921,-11.88399 5.50907,1.82837 0.14164,4.31799 0.68127,9.8394 z"
       style="fill:#a02c2c;fill-opacity:1;stroke:none" />
    <path
       sodipodi:nodetypes="sssss"
       inkscape:connector-curvature="0"
       id="path3874-2"
       d="m 97.553089,169.16776 c -0.54918,5.61928 -4.084978,6.39652 1.094497,9.23743 5.633584,3.09001 19.568614,-0.72925 20.196784,-7.15659 0.67764,-6.93383 -14.46339,-14.13059 -20.597945,-12.09463 -5.606713,1.86077 -0.144149,4.39452 -0.693336,10.01379 z"
       style="fill:#a02c2c;fill-opacity:1;stroke:none" />
    <path
       sodipodi:nodetypes="ccccc"
       inkscape:connector-curvature="0"
       id="path3897"
       d="m 33.741559,157.34275 c 5.77052,-10.05928 8.78841,-23.42171 19.47199,-27.58533 11.7056,2.55146 20.26574,11.39383 30.01932,17.84933 -8.44422,-13.26959 -21.06213,-24.03498 -34.88732,-34.07599 -8.47991,13.15923 -11.38105,28.54997 -14.60399,43.81199 z"
       style="fill:#ead096;fill-opacity:1;stroke:none" />
    <path
       sodipodi:nodetypes="ccccc"
       inkscape:connector-curvature="0"
       id="path3897-7"
       d="m 210.11151,159.30437 c -5.77052,-10.05928 -8.78841,-23.42171 -19.47199,-27.58533 -11.7056,2.55146 -20.26574,11.39383 -30.01932,17.84933 8.44422,-13.26959 21.06213,-24.03498 34.88732,-34.07599 8.47991,13.15923 11.38105,28.54997 14.60399,43.81199 z"
       style="fill:#ead096;fill-opacity:1;stroke:none" />
    <path
       sodipodi:nodetypes="ccccccc"
       inkscape:connector-curvature="0"
       id="path3919"
       d="m 113.29689,172.69255 c -1.74703,4.31645 -2.82448,9.16851 -2.82938,14.53024 0.42459,3.58207 2.11512,4.40081 3.829,6.71184 -0.37675,-1.58274 -0.99005,-3.16549 0,-4.74823 l 2.99889,4.49833 c -0.87711,-7.43311 1.51701,-14.6431 2.99888,-20.49236 z"
       style="fill:#a02c2c;stroke:none" />
    <path
       sodipodi:nodetypes="ccccccc"
       inkscape:connector-curvature="0"
       id="path3919-6"
       d="m 129.79038,172.7868 c 1.74703,4.31645 2.82448,9.16851 2.82938,14.53024 -0.42459,3.58207 -2.11512,4.40081 -3.829,6.71184 0.37675,-1.58274 0.99005,-3.16549 0,-4.74823 l -2.99889,4.49833 c 0.87711,-7.43311 -1.51701,-14.6431 -2.99888,-20.49236 z"
       style="fill:#a02c2c;stroke:none" />
  </g>
  <flowRoot
     xml:space="preserve"
     id="flowRoot3779"
     style="fill:black;stroke:none;stroke-opacity:1;stroke-width:1px;stroke-linejoin:miter;stroke-linecap:butt;fill-opacity:1;font-family:Sans;font-style:normal;font-weight:normal;font-size:40px;line-height:125%;letter-spacing:0px;word-spacing:0px"><flowRegion
       id="flowRegion3781"><rect
         id="rect3783"
         width="224.01274"
         height="44.432278"
         x="0"
         y="338.90561" /></flowRegion><flowPara
       id="flowPara3785" /></flowRoot>  <text
     xml:space="preserve"
     style="font-size:40px;font-style:normal;font-variant:normal;font-weight:normal;font-stretch:normal;line-height:125%;letter-spacing:0px;word-spacing:0px;fill:#800000;fill-opacity:1;stroke:none;font-family:Candy Script;-inkscape-font-specification:Candy Script"
     x="-14.182399"
     y="347.30417"
     id="text3787"
     sodipodi:linespacing="125%"
     inkscape:export-filename="C:\Users\julia\Documents\naldasmodapet\sources335\img\logo.png"
     inkscape:export-xdpi="500"
     inkscape:export-ydpi="500"><tspan
       sodipodi:role="line"
       id="tspan3789"
       x="-14.182399"
       y="347.30417">Nalda's Moda Pet</tspan></text>
</svg>
