<?xml version="1.0" encoding="UTF-8" standalone="no"?>
<!-- Created with Inkscape (http://www.inkscape.org/) -->

<svg
   xmlns:dc="http://purl.org/dc/elements/1.1/"
   xmlns:cc="http://creativecommons.org/ns#"
   xmlns:rdf="http://www.w3.org/1999/02/22-rdf-syntax-ns#"
   xmlns:svg="http://www.w3.org/2000/svg"
   xmlns="http://www.w3.org/2000/svg"
   xmlns:sodipodi="http://sodipodi.sourceforge.net/DTD/sodipodi-0.dtd"
   xmlns:inkscape="http://www.inkscape.org/namespaces/inkscape"
   id="svg2985"
   version="1.1"
   inkscape:version="0.48.1 "
   width="225"
   height="400"
   sodipodi:docname="logo.svg"
   inkscape:export-filename="C:\Users\julia\Documents\naldasmodapet\sources335\img\logo.png"
   inkscape:export-xdpi="500"
   inkscape:export-ydpi="500">
  <metadata
     id="metadata2991">
    <rdf:RDF>
      <cc:Work
         rdf:about="">
        <dc:format>image/svg+xml</dc:format>
        <dc:type
           rdf:resource="http://purl.org/dc/dcmitype/StillImage" />
        <dc:title></dc:title>
      </cc:Work>
    </rdf:RDF>
  </metadata>
  <defs
     id="defs2989" />
  <sodipodi:namedview
     pagecolor="#ffffff"
     bordercolor="#666666"
     borderopacity="1"
     objecttolerance="10"
     gridtolerance="10"
     guidetolerance="10"
     inkscape:pageopacity="0"
     inkscape:pageshadow="2"
     inkscape:window-width="1366"
     inkscape:window-height="705"
     id="namedview2987"
     showgrid="false"
     inkscape:zoom="1.0824912"
     inkscape:cx="-27.28592"
     inkscape:cy="198.03865"
     inkscape:window-x="-8"
     inkscape:window-y="-8"
     inkscape:window-maximized="1"
     inkscape:current-layer="svg2985"
     showguides="true"
     inkscape:guide-bbox="true" />
  <path
     sodipodi:type="arc"
     style="fill:#f4eed7;fill-opacity:1;stroke:none"
     id="path3939"
     sodipodi:cx="134.67067"
     sodipodi:cy="225.72032"
     sodipodi:rx="138.39857"
     sodipodi:ry="141.66049"
     d="m 273.06924,225.72032 a 138.39857,141.66049 0 1 1 -276.7971453,0 138.39857,141.66049 0 1 1 276.7971453,0 z"
     transform="matrix(0.88666532,0,0,0.88666532,-16.485205,-79.350161)" />
  <path
     style="fill:#f1e0ba;fill-opacity:1;stroke:none"
     d="m 32.537105,107.28747 c -1.15817,-10.723554 -2.172532,-21.477904 5.053784,-33.998114 8.814905,-12.65089 35.15101,-22.04236 40.43019,4.82405 1.548532,6.93193 -6.04016,10.88398 -9.64811,16.99905 -0.221041,4.80816 -0.302057,9.306604 3.675467,11.715584 l -2.986321,1.3783 c 5.560698,4.90356 12.039619,2.46134 18.14764,2.98631 12.48129,-7.42686 24.962575,-7.04398 37.443865,0.22971 7.22327,2.56076 13.2165,1.02135 18.60708,-2.52687 l -4.36463,-1.60802 c 2.43602,-0.67384 6.83548,-2.84694 3.44575,-13.553314 -4.1009,-4.28234 -8.6287,-7.99547 -9.18867,-16.99905 10.24602,-27.52463 33.74519,-10.28667 38.36273,-5.05377 10.5093,16.18427 8.16764,25.43332 8.2698,35.835854 -2.04796,-12.924554 -6.37553,-22.144704 -13.32357,-27.106604 1.8504,2.71197 3.27724,5.63575 3.90518,8.95896 -5.31985,-6.28966 -7.79162,-5.74386 -10.10755,-4.82405 6.46142,4.46981 7.95753,9.64896 10.33727,14.70187 -2.37374,-3.45327 -4.74748,-6.16412 -7.12122,-5.97264 6.82679,13.337784 16.56169,22.105654 15.39103,48.010854 -2.49181,14.49611 -5.97122,30.47366 -6.20235,41.57877 -0.76051,14.87498 7.92734,19.67175 16.08018,25.03915 -26.02626,-8.11623 -25.40741,-31.01827 -22.51227,-54.67264 1.02081,-16.74367 -2.24942,-29.73269 -11.0264,-37.90329 2.25059,3.98175 3.99587,7.9635 3.21603,11.94528 -0.69334,-2.67583 -1.41536,-5.323 -3.90518,-6.20236 3.74164,8.95319 2.60674,15.19718 0.91886,21.13396 -0.78405,-5.33257 -2.73837,-8.90972 -5.97264,-10.56698 2.6267,7.19779 5.06901,14.3956 2.29716,21.59339 0,-5.20691 -1.83772,-9.49496 -5.51319,-12.86414 3.17544,21.24538 0.21285,42.2239 -24.57972,62.25329 13.06951,-22.66807 28.42638,-60.46196 -15.85047,-70.06368 -40.288031,9.40934 -33.561527,42.67607 -15.161322,70.29341 -6.256419,-6.89218 -30.144689,-18.29072 -25.498589,-61.56416 -3.32947,1.23721 -4.354655,6.50695 -5.283489,11.94528 -0.454277,-6.67916 -2.764778,-12.61584 2.526888,-21.59339 -2.791948,2.23826 -5.231707,5.06351 -6.202363,10.33726 -2.836204,-7.70379 -1.903618,-14.6538 1.378308,-21.13395 -1.656812,0.4174 -2.857354,2.65988 -3.90518,5.5132 -1.789029,-3.41991 1.30693,-7.01258 3.67546,-11.02641 -7.971529,3.12165 -13.902608,21.66619 -11.715565,37.44387 4.050338,30.44772 -2.677233,49.56486 -22.512262,54.90234 8.888747,-5.65999 17.180908,-11.91657 15.850465,-27.79575 -3.077586,-17.93617 -8.159238,-36.27316 -5.513201,-53.06461 0.748909,-14.89365 9.709443,-23.40045 15.391032,-34.457564 -2.701821,1.69019 -5.795237,2.793 -7.350943,6.20237 0.500558,-6.38165 6.263704,-10.50788 10.796698,-15.16132 -3.522321,0.73668 -7.044657,-0.36888 -10.566977,5.51321 l 4.364622,-9.4184 c -6.833332,5.56034 -12.773099,12.5504 -13.553307,27.795754 z"
     id="path3050"
     inkscape:connector-curvature="0"
     sodipodi:nodetypes="cccccccccccccccccccccccccccccccccccccccccccccccccc" />
  <path
     sodipodi:type="arc"
     style="fill:#502d16;fill-opacity:1;stroke:none"
     id="path3822"
     sodipodi:cx="593.77856"
     sodipodi:cy="201.4514"
     sodipodi:rx="9.9585505"
     sodipodi:ry="10.580959"
     d="m 603.73711,201.4514 a 9.9585505,10.580959 0 1 1 -19.9171,0 9.9585505,10.580959 0 1 1 19.9171,0 z"
     transform="matrix(0.78480627,0,0,0.78480627,-334.41723,-57.660257)" />
  <path
     sodipodi:type="arc"
     style="fill:#502d16;fill-opacity:1;stroke:none"
     id="path3822-5"
     sodipodi:cx="593.77856"
     sodipodi:cy="201.4514"
     sodipodi:rx="9.9585505"
     sodipodi:ry="10.580959"
     d="m 603.73711,201.4514 a 9.9585505,10.580959 0 1 1 -19.9171,0 9.9585505,10.580959 0 1 1 19.9171,0 z"
     transform="matrix(0.78480627,0,0,0.78480627,-386.19514,-57.949519)" />
  <path
     sodipodi:type="arc"
     style="fill:#ffffff;fill-opacity:1;stroke:none"
     id="path3842"
     sodipodi:cx="93.028282"
     sodipodi:cy="197.44456"
     sodipodi:rx="3.9343476"
     sodipodi:ry="4.3150907"
     d="m 96.96263,197.44456 a 3.9343476,4.3150907 0 1 1 -7.868695,0 3.9343476,4.3150907 0 1 1 7.868695,0 z"
     transform="matrix(0.78480627,0,0,0.78480627,9.6272357,-57.300026)" />
  <path
     sodipodi:type="arc"
     style="fill:#ffffff;fill-opacity:1;stroke:none"
     id="path3842-4"
     sodipodi:cx="93.028282"
     sodipodi:cy="197.44456"
     sodipodi:rx="3.9343476"
     sodipodi:ry="4.3150907"
     d="m 96.96263,197.44456 a 3.9343476,4.3150907 0 1 1 -7.868695,0 3.9343476,4.3150907 0 1 1 7.868695,0 z"
     transform="matrix(0.78480627,0,0,0.78480627,61.719733,-56.901618)" />
  <path
     style="fill:#502d16;fill-opacity:1;stroke:none"
     d="m 114.87798,116.36361 c 0,3.34111 -4.07742,8.7817 -7.90351,8.7817 -3.82611,0 -7.903525,-5.63574 -7.903525,-8.97685 0,-3.3411 4.077415,-6.0496 7.903525,-6.0496 3.82609,0 7.90351,2.90364 7.90351,6.24475 z"
     id="path3865"
     inkscape:connector-curvature="0"
     sodipodi:nodetypes="sssss" />
  <path
     style="fill:#f1e0ba;fill-opacity:1;stroke:none"
     d="m 106.00767,95.367386 c 14.43769,-2.48154 13.25612,-6.77316 15.29664,-20.87814 5.06368,-13.26474 6.02317,-22.74795 -0.22993,-31.06364 0.60265,6.76676 0.52556,11.39017 -2.71999,15.04893 -3.03927,-0.53503 4.36428,-12.52719 -17.56663,-27.46246 8.69334,11.76625 3.03445,27.83579 2.72104,28.97603 -0.74767,2.72016 -0.71255,-4.10706 -5.946745,-12.36643 0.53791,8.68031 -1.37448,22.00994 -5.252489,21.24186 -6.509139,-1.28921 -2.804244,13.0813 -0.496178,13.79565 1.265524,11.53574 9.475082,11.58077 14.194282,12.7082 z"
     id="path3868"
     inkscape:connector-curvature="0"
     sodipodi:nodetypes="cccccscscc" />
  <path
     sodipodi:type="arc"
     style="fill:#a02c2c;fill-opacity:1;stroke:none"
     id="path3870"
     sodipodi:cx="127.88162"
     sodipodi:cy="179.59502"
     sodipodi:rx="11.99377"
     sodipodi:ry="11.05919"
     d="m 139.87539,179.59502 a 11.99377,11.05919 0 1 1 -23.98754,0 11.99377,11.05919 0 1 1 23.98754,0 z"
     transform="matrix(0.54603118,0,0,0.54603118,36.949071,-19.310271)" />
  <path
     style="fill:#a02c2c;fill-opacity:1;stroke:none"
     d="m 126.09978,77.339326 c 0.42349,4.33323 3.15008,4.93259 -0.84401,7.12333 -4.34428,2.38283 -15.09012,-0.56235 -15.57451,-5.51873 -0.52258,-5.34693 11.15326,-10.89663 15.88385,-9.32663 4.32356,1.43492 0.11116,3.38879 0.53467,7.72203 z"
     id="path3874"
     inkscape:connector-curvature="0"
     sodipodi:nodetypes="sssss" />
  <path
     style="fill:#a02c2c;fill-opacity:1;stroke:none"
     d="m 87.98037,77.057546 c -0.431,4.41004 -3.205916,5.02003 0.858968,7.24959 4.421272,2.42506 15.357562,-0.57232 15.850562,-5.61653 0.53181,-5.44172 -11.350958,-11.08978 -16.165396,-9.49195 -4.400183,1.46035 -0.113129,3.44885 -0.544134,7.85889 z"
     id="path3874-2"
     inkscape:connector-curvature="0"
     sodipodi:nodetypes="sssss" />
  <path
     style="fill:#f1e0ba;fill-opacity:1;stroke:none"
     d="m 37.900681,67.777206 c 4.52874,-7.89459 6.897199,-18.38151 15.28174,-21.64914 9.186628,2.0024 15.90468,8.94195 23.55935,14.00826 -6.627076,-10.41405 -16.529691,-18.8628 -27.379787,-26.74305 -6.655087,10.32745 -8.931919,22.4062 -11.461303,34.38393 z"
     id="path3897"
     inkscape:connector-curvature="0"
     sodipodi:nodetypes="ccccc" />
  <path
     style="fill:#f1e0ba;fill-opacity:1;stroke:none"
     d="m 176.31692,69.316696 c -4.52874,-7.89459 -6.8972,-18.38151 -15.28174,-21.64914 -9.18663,2.0024 -15.90468,8.94195 -23.55935,14.00826 6.62708,-10.41405 16.52969,-18.8628 27.37979,-26.74305 6.65508,10.32745 8.93192,22.4062 11.4613,34.38393 z"
     id="path3897-7"
     inkscape:connector-curvature="0"
     sodipodi:nodetypes="ccccc" />
  <path
     style="fill:#a02c2c;stroke:none"
     d="m 100.3362,79.823826 c -1.371075,3.38757 -2.216665,7.1955 -2.220515,11.40342 0.33322,2.81123 1.65996,3.45378 3.005025,5.26749 -0.29568,-1.24214 -0.777,-2.48429 0,-3.72644 l 2.35354,3.53032 c -0.68836,-5.83355 1.19056,-11.492 2.35354,-16.08253 z"
     id="path3919"
     inkscape:connector-curvature="0"
     sodipodi:nodetypes="ccccccc" />
  <path
     style="fill:#a02c2c;stroke:none"
     d="m 113.28039,79.897786 c 1.37108,3.38758 2.21667,7.19551 2.22052,11.40343 -0.33322,2.81123 -1.65996,3.45378 -3.00503,5.26749 0.29568,-1.24214 0.777,-2.48429 0,-3.72644 l -2.35354,3.53032 c 0.68836,-5.83355 -1.19056,-11.492 -2.35354,-16.08253 z"
     id="path3919-6"
     inkscape:connector-curvature="0"
     sodipodi:nodetypes="ccccccc" />
  <text
     xml:space="preserve"
     style="font-size:27.49856186px;font-style:normal;font-weight:normal;line-height:125%;letter-spacing:0px;word-spacing:0px;fill:#a02c2c;fill-opacity:1;stroke:none;font-family:Sans"
     x="0.88713712"
     y="278.27783"
     id="text3011"
     sodipodi:linespacing="125%"
     transform="scale(1.0001937,0.99980636)"><tspan
       sodipodi:role="line"
       id="tspan3013"
       x="0.88713712"
       y="278.27783"
       style="font-style:normal;font-variant:normal;font-weight:normal;font-stretch:normal;fill:#a02c2c;fill-opacity:1;stroke:#000000;stroke-width:0.5;stroke-miterlimit:4;stroke-opacity:1;stroke-dasharray:none;font-family:Microsoft JhengHei Light;-inkscape-font-specification:Microsoft JhengHei Light">Nalda's Moda Pet</tspan></text>
</svg>
